<?xml version="1.0" encoding="UTF-8"?> <svg xmlns:xlink="http://www.w3.org/1999/xlink" xmlns="http://www.w3.org/2000/svg" width="300" height="348" viewBox="0 0 300 348" fill="none"><path d="M288.312 248.028C315.078 215.824 290.728 170.667 266.698 155.242C242.668 139.817 197.84 125.173 216.085 92.4921C232.933 62.3163 251.539 23.8104 216.779 5.41245C178.911 -14.6286 150.738 35.597 128.316 42.7744C105.895 49.9517 86.173 39.0514 71.7821 26.5448C57.3889 14.0364 42.1092 -7.90819 9.0173 2.93536C-26.9004 14.7035 -18.0676 60.1357 -48.2615 82.8458C-66.9668 96.9151 -105.392 74.739 -124.524 99.9521C-151.401 135.38 -102.77 162.401 -105.104 186.102C-108.237 217.898 -188.749 232.207 -171.608 286.474C-159.32 325.374 -116.488 334.753 -66.5176 305.159C-10.5559 272.018 -8.38216 357.671 69.4165 346.019C125.72 337.587 129.829 287.488 150.002 271.537C177.318 249.938 244.519 300.719 288.312 248.028Z" fill="#0A8D62"></path></svg> 