<?xml version="1.0" encoding="UTF-8"?> <svg xmlns:xlink="http://www.w3.org/1999/xlink" xmlns="http://www.w3.org/2000/svg" width="364" height="420" viewBox="0 0 364 420" fill="none"><path d="M35.1963 0.471161C-6.91236 -0.462592 -27.1015 47.1472 -24.1317 75.8307C-21.1619 104.514 -4.51988 149.149 -41.6522 155.251C-75.94 160.883 -117.876 170.358 -110.504 209.391C-102.473 251.913 -45.3211 242.642 -25.6035 255.859C-5.88579 269.076 -2.06651 291.512 -2.8565 310.743C-3.64636 329.977 -11.2934 355.838 18.0048 375.188C49.8037 396.191 79.9524 360.675 116.754 370.281C139.553 376.232 146.258 420.536 178.08 419.825C222.791 418.823 213.485 363.408 233.571 350.368C260.52 332.876 322.316 387.537 354.19 339.904C377.036 305.76 357.511 266.01 302.883 245.092C241.706 221.667 307.636 166.156 249.632 111.972C207.653 72.7579 165.711 100.974 140.513 95.0444C106.391 87.0156 104.092 1.99878 35.1963 0.471161Z" fill="#0A8D62"></path></svg> 