<?xml version="1.0" encoding="UTF-8"?> <svg xmlns="http://www.w3.org/2000/svg" width="1004" height="726" style="width:100%;height:100%;transform:translate3d(0,0,0)"><defs><clipPath id="a"><path d="M0 0h1004v726H0z"></path></clipPath></defs><g clip-path="url(#a)"><path fill="#164444" d="M10.591-47.613c-23.296-4.362-40.26 18.089-41.69 20.044-17.229 23.543-12.984 63.81 5.831 72.497 15.259 7.047 36.189-8.858 44.815-17.492 2.092-2.096 28.78-29.484 17.172-54.73-4.674-10.159-14.722-18.185-26.128-20.319z" style="display:block" transform="matrix(.8001 0 0 .8001 633.167 128.11)"></path><path fill="#164444" d="M-5.926-20.057C-16.458-16.645-24.95-5.239-22.486 4.231c3.02 11.616 22.006 18.374 33.854 10.673 8.493-5.523 13.582-18.641 7.728-27.97-5.359-8.547-17.164-9.539-25.022-6.991z" style="display:block" transform="matrix(.8001 0 0 .8001 336.87 157.351)"></path><path fill="#164444" d="M-66.871 10.267c-4.248-5.542-3.286-12.707-3.1-14.076 2.94-21.839 39.399-32.299 44.298-33.641 5.317-1.461 41.784-10.893 71.302 10.687 6.218 4.545 18.393 13.449 21.713 29.324.556 2.648 3.777 18.051-5.861 30.123-7.85 9.836-19.716 11.798-22.599 12.19-25.517 3.469-32.188-23.049-66.133-28.643-18.409-3.032-32.42 3.423-39.62-5.964z" style="display:block" transform="matrix(.8001 0 0 .8001 835.775 293.516)"></path><path fill="#164444" d="M53.384 8.196c3.393-4.423 2.621-10.144 2.476-11.239-2.35-17.431-31.458-25.783-35.364-26.856-4.244-1.163-34.976-8.694-58.541 8.535-4.964 3.629-13.065 10.733-15.716 23.406-.445 2.115-3.016 14.411 4.678 24.049 6.268 7.85 15.743 9.421 18.044 9.733 20.37 2.769 25.695-18.401 52.794-22.866 14.696-2.423 25.882 2.734 31.629-4.762z" style="display:block" transform="matrix(.8001 0 0 .8001 166.15 343.142)"></path><path fill="#164444" d="M12.353 31.077c-15.841 5.363-29.925-8.63-31.115-9.855-14.377-14.73-15.419-43.278-3.142-51.22 9.961-6.442 26.163 2.587 33.047 7.759 1.67 1.255 23.038 17.732 17.439 36.524-2.252 7.561-8.474 14.164-16.229 16.792z" style="display:block" transform="matrix(.8001 0 0 .8001 642.334 581.9)"></path><path fill="#164444" d="M413.006 214.443c59.329-51.992 27.08-143.026-13.247-178.724C359.432.02 280.078-40.322 323.65-95.695c40.235-51.129 86.18-117.219 26.703-161.586-64.794-48.329-132.007 36.733-175.929 43.5-43.921 6.766-77.531-19.264-100.728-46.717-23.201-27.457-45.302-72.706-110.199-62.255-70.439 11.342-67.217 98.34-130.171 131.688-38.999 20.66-104.212-31.8-147.258 9.44-60.478 57.948 22.36 122.401 11.09 165.752-15.122 58.157-169.493 61.153-153.352 167.001 11.574 75.874 88.741 105.848 190.595 65.506 114.067-45.181 93.129 114.595 241.662 115.74 107.495.829 129.779-91.048 172.065-114.773 57.259-32.127 167.808 81.908 264.878-3.158z" style="display:block" transform="translate(487.52 364.497) scale(.80001)"></path><path fill="#EFE9E1" d="M0 25.754c-14.225 0-25.756-11.531-25.756-25.756 0-14.221 11.531-25.753 25.756-25.753S25.756-14.223 25.756-.002c0 14.225-11.531 25.756-25.756 25.756zM0-82.577c-45.606 0-82.575 36.973-82.575 82.575 0 45.606 36.969 82.579 82.575 82.579S82.575 45.604 82.575-.002c0-45.602-36.969-82.575-82.575-82.575z" style="display:block" transform="matrix(.80004 0 0 .80004 648.075 375.736)"></path><path fill="#EFE9E1" d="M-.002 25.754c-14.225 0-25.756-11.531-25.756-25.756 0-14.221 11.531-25.753 25.756-25.753S25.754-14.223 25.754-.002c0 14.225-11.531 25.756-25.756 25.756zm0-108.331c-45.606 0-82.575 36.973-82.575 82.575 0 45.606 36.969 82.579 82.575 82.579S82.577 45.604 82.577-.002c0-45.602-36.973-82.575-82.579-82.575z" style="display:block" transform="matrix(.80005 0 0 .80005 510.973 350.395)"></path><path fill="#EFE9E1" d="M5.869-76.922-9.31-45.155a4.861 4.861 0 0 1-7.029 1.988l-31.176-20.127a16.836 16.836 0 0 0-13.43-2.133l-29.598 7.812a9.172 9.172 0 0 0-6.53 11.211l35.55 134.67c1.293 4.899 6.314 7.825 11.212 6.531l27.913-7.367c4.899-1.293 7.824-6.313 6.531-11.216l-13.86-52.495 26.879 17.359c4.647 3 10.873 1.236 13.254-3.754L23.608 9.697l13.844 52.444c1.293 4.898 6.314 7.824 11.213 6.531l41.878-11.057c4.899-1.293 7.824-6.314 6.531-11.213L64.688-76.279l-3.164-11.987c-1.293-4.903-6.314-7.824-11.216-6.531l-33.542 8.854a16.838 16.838 0 0 0-10.897 9.021z" style="display:block" transform="matrix(.80002 0 0 .80002 370.594 367.6)"></path></g></svg> 