<?xml version="1.0" encoding="UTF-8"?>
<svg xmlns="http://www.w3.org/2000/svg" width="813" height="474" viewBox="0 0 813 474" fill="none">
  <path d="M736.853 266.81C784.269 289.401 839.146 366.178 797.755 431.139C784.946 451.24 769.754 464.781 753.234 473.833H22.4618C45.6542 451.917 66.1845 431.537 65.5595 409.115C65.1005 392.686 51.4452 377.064 36.7157 360.213C12.1835 332.147 -15.3272 300.672 10.1972 256.39C26.7304 227.712 58.1913 225.551 87.9345 223.509C110.5 221.959 132.077 220.477 145.397 207.535C167.978 185.595 174.864 156.996 181.482 129.506C189.473 96.3187 197.074 64.7477 231.432 48.4584C280.799 25.0506 312.035 48.1764 338.248 67.5826C342.766 70.9271 347.134 74.1612 351.42 77.0275C380.572 96.5228 419.08 111.854 458.333 93.5704C471.118 87.6151 483.96 73.1842 498.014 57.3922C527.107 24.6998 561.393 -13.8268 611.11 4.92882C678.793 30.4645 653.75 105.037 629.985 164.003C609.088 215.862 661.341 236.394 707.111 254.379C717.701 258.54 727.944 262.565 736.853 266.81Z" fill="black"></path>
</svg>
